<?xml version="1.0" standalone="no"?>
<!DOCTYPE svg PUBLIC "-//W3C//DTD SVG 20010904//EN"
 "http://www.w3.org/TR/2001/REC-SVG-20010904/DTD/svg10.dtd">
<svg version="1.0" xmlns="http://www.w3.org/2000/svg"
 width="500.000000pt" height="500.000000pt" viewBox="0 0 500.000000 500.000000"
 preserveAspectRatio="xMidYMid meet">
<metadata>
Created by potrace 1.14, written by Peter Selinger 2001-2017
</metadata>
<g transform="translate(0.000000,500.000000) scale(0.100000,-0.100000)"
fill="#000000" stroke="none">
<path d="M2205 4964 c-580 -78 -1072 -320 -1467 -721 -378 -383 -610 -848
-695 -1393 -25 -161 -25 -538 0 -700 84 -544 317 -1010 694 -1393 377 -382
848 -623 1388 -709 187 -30 559 -32 733 -5 446 72 869 257 1207 530 97 78 294
276 370 372 148 186 292 431 372 635 62 156 128 391 135 475 l3 40 -100 7
c-55 4 -174 14 -265 23 -91 8 -246 19 -345 25 -476 27 -905 71 -1315 135 -52
8 -127 16 -166 17 -68 3 -72 2 -110 -31 -114 -100 -298 -196 -453 -235 -186
-47 -314 -37 -801 59 -276 55 -394 67 -521 54 -158 -16 -291 -59 -528 -171
-68 -32 -128 -58 -133 -58 -13 0 -9 32 8 65 9 17 34 75 56 130 91 225 173 350
358 545 47 49 182 157 255 204 33 21 72 47 86 57 15 10 44 25 65 35 229 99
336 132 539 163 77 12 165 26 196 32 30 5 133 9 229 9 169 0 176 -1 291 -35
189 -57 247 -88 400 -211 l66 -54 84 0 c46 0 116 5 154 10 39 5 176 16 305 25
129 8 334 22 455 31 151 11 267 14 369 9 82 -4 299 -4 483 0 319 7 333 8 333
27 0 22 -53 226 -82 313 -58 177 -182 435 -278 580 -354 532 -871 899 -1485
1054 -258 66 -639 89 -890 55z"/>
<path d="M3540 2849 c-727 -50 -791 -57 -817 -81 -66 -62 -90 -226 -45 -320
33 -69 57 -84 154 -92 46 -4 157 -16 248 -26 216 -25 404 -47 570 -66 74 -8
194 -16 265 -17 l130 -2 6 165 c4 91 10 229 14 308 l7 142 -208 -1 c-115 -1
-261 -5 -324 -10z"/>
</g>
</svg>
